<svg width="48" height="48" viewBox="0 0 48 48" fill="none" xmlns="http://www.w3.org/2000/svg">
<path d="M45.1295 14.1904C45.1295 13.3963 44.9602 12.6803 44.6087 12.0814C44.2703 11.4825 43.7625 10.9878 43.0856 10.5973C37.4615 7.35559 31.8243 4.11395 26.2002 0.872261C24.677 -6.85671e-06 23.2189 0.0260416 21.7088 0.911306C19.4695 2.22623 8.24734 8.65747 4.91456 10.5973C3.53454 11.3914 2.87061 12.6152 2.87061 14.2035V33.7837C2.87061 34.5648 3.03984 35.2548 3.36531 35.8537C3.70383 36.4656 4.22458 36.9863 4.91456 37.3899C8.26039 39.3297 19.4695 45.7479 21.7088 47.0759C23.2189 47.9609 24.69 48 26.2002 47.1149C31.8243 43.8602 37.4615 40.6316 43.0856 37.3899C43.7886 36.9863 44.2963 36.4786 44.6348 35.8537C44.9602 35.2548 45.1295 34.5648 45.1295 33.7837V14.1904Z" fill="#9A4993"/>
<path d="M24.052 23.9155L3.33911 35.8406C3.67763 36.4525 4.19838 36.9733 4.88837 37.3769C8.2342 39.3166 19.4433 45.7349 21.6826 47.0628C23.1927 47.9481 24.6639 47.9872 26.174 47.1019C31.7981 43.8472 37.4353 40.6185 43.0594 37.3769C43.7624 36.9733 44.2701 36.4656 44.6086 35.8406L24.052 23.9155Z" fill="#6A1577"/>
<path d="M17.9202 27.4435C19.131 29.5526 21.3962 30.9716 23.9869 30.9716C26.6037 30.9716 28.882 29.5396 30.0797 27.4045L24.052 23.9155L17.9202 27.4435Z" fill="#6A1577"/>
<path d="M45.1294 14.1905C45.1294 13.3963 44.9601 12.6803 44.6086 12.0814L24.052 23.9155L44.6346 35.8407C44.9601 35.2418 45.1294 34.5518 45.1294 33.7707V14.1905Z" fill="#813084"/>
<path d="M30.0797 27.4045C28.882 29.5265 26.6037 30.9716 23.9869 30.9716C21.3832 30.9716 19.1179 29.5526 17.9202 27.4435C17.3343 26.4151 16.9958 25.2434 16.9958 23.9806C16.9958 20.114 20.1203 16.9895 23.9869 16.9895C26.5646 16.9895 28.8169 18.3955 30.0276 20.4785L36.1334 16.9634C33.6989 12.7714 29.1684 9.94635 23.9739 9.94635C16.2147 9.94635 9.9397 16.2344 9.9397 23.9806C9.9397 26.5192 10.6166 28.9147 11.8014 30.9716C14.2228 35.1767 18.7794 38.0148 23.9869 38.0148C29.2075 38.0148 33.764 35.1637 36.1855 30.9326L30.0797 27.4045ZM37.7998 20.6608H36.4068V27.3915H37.7998V20.6608ZM40.8852 20.6608H39.4922V27.3915H40.8852V20.6608Z" fill="white"/>
<path d="M42.0178 21.7934H35.2871V23.1864H42.0178V21.7934ZM42.0178 24.8658H35.2871V26.2588H42.0178V24.8658Z" fill="white"/>
</svg>
